#!OML:ASF H:\BabyWalks\Project 1\Capture day 1\Session 1\baby.ASF
:FULLY-SPECIFIED
:DEGREES
546
root 5.1204 17.5088 -12.1136 301.812 84.5664 291.509
lowerback 19.3816 -1.24745 5.23377
upperback 2.02107 0.0790607 4.07029
thorax -8.68885 0.0217849 1.41661
lowerneck -4.2777 1.04391 8.22931
upperneck -9.81306 0.648507 -11.9566
head -2.08465 0.441429 -5.00516
rclavicle -1.07344e-014 2.62396e-014
rhumerus -48.7611 4.86311 -77.4721
rradius 39.977
rwrist 8.34927
rhand -4.291 -13.594
rfingers 7.12502
rthumb 21.4745 -42.4237
lclavicle -1.07344e-014 2.62396e-014
lhumerus -47.9127 -15.1674 89.395
lradius 48.2589
lwrist -9.20802
lhand -7.05385 7.68518
lfingers 7.12502
lthumb 18.819 36.7948
rfemur -18.6713 11.6115 27.3372
rtibia 34.1498
rfoot -23.6175 -1.93498
rtoes 3.57392
lfemur -14.6282 4.92151 -6.28001
ltibia 63.5415
lfoot -19.3779 -15.9609
ltoes -13.5587
547
root 5.26931 17.4827 -12.1074 306.028 84.1712 295.749
lowerback 19.525 -1.0164 5.53968
upperback 2.11145 0.463111 4.09853
thorax -8.66128 0.198564 1.17207
lowerneck -4.18162 1.02949 8.40434
upperneck -9.98662 0.608515 -12.1847
head -2.15134 0.429002 -5.10944
rclavicle 3.57812e-015 -1.11319e-014
rhumerus -48.0105 5.43448 -78.0821
rradius 40.3645
rwrist 9.14205
rhand -3.82151 -13.3455
rfingers 7.12502
rthumb 21.9254 -42.1231
lclavicle 3.57812e-015 -1.11319e-014
lhumerus -49.2458 -14.7272 90.0256
lradius 46.8952
lwrist -10.0586
lhand -6.76697 7.96692
lfingers 7.12502
lthumb 19.0949 37.0496
rfemur -18.1206 11.9908 27.6228
rtibia 34.2365
rfoot -24.0357 -1.88344
rtoes 3.43217
lfemur -16.1833 5.54597 -6.09134
ltibia 65.8564
lfoot -20.0727 -17.0775
ltoes -13.8345
548
root 5.42017 17.4592 -12.1004 310.085 83.8343 299.754
lowerback 19.5891 -0.763726 5.72561
upperback 2.16874 0.838146 4.09625
thorax -8.62357 0.372966 0.963896
lowerneck -4.12165 1.00855 8.5463
upperneck -10.1048 0.563324 -12.3818
head -2.19713 0.412225 -5.1976
rclavicle -9.93923e-015 -8.82604e-014
rhumerus -47.372 6.0788 -78.7011
rradius 41.027
rwrist 9.82237
rhand -3.54633 -13.1531
rfingers 7.12502
rthumb 22.1896 -41.8995
lclavicle -9.93923e-015 -8.82604e-014
lhumerus -50.6261 -14.3792 90.627
lradius 45.7093
lwrist -10.8421
lhand -6.15106 8.27562
lfingers 7.12502
lthumb 19.6871 37.2987
rfemur -17.6461 12.3319 27.7915
rtibia 34.3165
rfoot -24.4489 -1.8159
rtoes 3.28048
lfemur -17.8232 6.14402 -6.04247
ltibia 67.8228
lfoot -20.7279 -18.104
ltoes -14.1508
549
root 5.57271 17.4378 -12.0929 313.963 83.5558 303.521
lowerback 19.5855 -0.497834 5.80883
upperback 2.19556 1.19809 4.06567
thorax -8.58099 0.541652 0.787288
lowerneck -4.05779 0.981434 8.6523
upperneck -10.2124 0.513602 -12.5399
head -2.2418 0.393329 -5.26738
rclavicle -9.14409e-015 -5.48646e-014
rhumerus -46.8663 6.78156 -79.3217
rradius 41.9953
rwrist 10.3195
rhand -3.52415 -13.0397
rfingers 7.12502
rthumb 22.2108 -41.7835
lclavicle -9.14409e-015 -5.48646e-014
lhumerus -52.068 -14.1363 91.2133
lradius 44.7439
lwrist -11.5004
lhand -5.17163 8.62182
lfingers 7.12502
lthumb 20.6285 37.5456
rfemur -17.2277 12.6155 27.8545
rtibia 34.3783
rfoot -24.8505 -1.72419
rtoes 3.10624
lfemur -19.5365 6.68367 -6.12879
ltibia 69.4273
lfoot -21.3542 -19.0358
ltoes -14.4992
550
root 5.72805 17.4229 -12.0847 317.57 83.3339 306.982
lowerback 19.5391 -0.227027 5.81161
upperback 2.20306 1.54025 4.0132
thorax -8.53619 0.703242 0.637904
lowerneck -4.00252 0.94471 8.73964
upperneck -10.3178 0.451989 -12.6823
head -2.28617 0.368655 -5.32903
rclavicle -1.70955e-014 -3.57812e-014
rhumerus -46.4971 7.52148 -79.9317
rradius 43.2833
rwrist 10.5698
rhand -3.80162 -13.0361
rfingers 7.12502
rthumb 21.9445 -41.8114
lclavicle -1.70955e-014 -3.57812e-014
lhumerus -53.5736 -14.0038 91.7987
lradius 44.0294
lwrist -12.0003
lhand -3.8472 8.99399
lfingers 7.12502
lthumb 21.9007 37.7745
rfemur -16.8088 12.829 27.8371
rtibia 34.381
rfoot -25.2246 -1.60402
rtoes 2.9153
lfemur -21.2723 7.12494 -6.33022
ltibia 70.6319
lfoot -21.9398 -19.8723
ltoes -14.81
551
root 5.88515 17.4104 -12.0767 320.879 83.1602 310.139
lowerback 19.4785 0.0396574 5.7622
upperback 2.19595 1.86213 3.93935
thorax -8.49998 0.855694 0.501158
lowerneck -3.92923 0.898957 8.81955
upperneck -10.4452 0.378925 -12.8092
head -2.34162 0.339242 -5.38502
rclavicle 1.43125e-014 3.26007e-014
rhumerus -46.2693 8.28967 -80.533
rradius 44.8832
rwrist 10.5295
rhand -4.405 -13.1556
rfingers 7.12502
rthumb 21.365 -41.9977
lclavicle 1.43125e-014 3.26007e-014
lhumerus -55.1484 -13.9772 92.388
lradius 43.5703
lwrist -12.3116
lhand -2.23733 9.36696
lfingers 7.12502
lthumb 23.4458 37.9585
rfemur -16.3523 12.9694 27.7617
rtibia 34.2963
rfoot -25.5476 -1.44148
rtoes 2.72365
lfemur -23.0033 7.45025 -6.62338
ltibia 71.4412
lfoot -22.4988 -20.5988
ltoes -15.1089
552
root 6.045 17.404 -12.0688 323.833 83.0353 312.957
lowerback 19.4297 0.293182 5.68013
upperback 2.18069 2.15913 3.84713
thorax -8.47961 0.996395 0.370157
lowerneck -3.83798 0.84758 8.89026
upperneck -10.6017 0.298871 -12.9183
head -2.40984 0.307529 -5.43441
rclavicle -1.19271e-014 -3.97569e-015
rhumerus -46.1721 9.06834 -81.1203
rradius 46.7726
rwrist 10.1854
rhand -5.3321 -13.3999
rfingers 7.12502
rthumb 20.4743 -42.3403
lclavicle -1.19271e-014 -3.97569e-015
lhumerus -56.7938 -14.0392 92.9799
lradius 43.3791
lwrist -12.4236
lhand -0.401528 9.77095
lfingers 7.12502
lthumb 25.2057 38.1264
rfemur -15.8123 13.0323 27.6489
rtibia 34.0788
rfoot -25.7918 -1.23975
rtoes 2.50101
lfemur -24.6819 7.63887 -6.98638
ltibia 71.8318
lfoot -23.0322 -21.215
ltoes -15.3995
